<svg xmlns="http://www.w3.org/2000/svg" xmlns:xlink="http://www.w3.org/1999/xlink" viewBox="0 0 48 48" width="32" height="32" style="" filter="none">
    
    <g>
    <path d="M6 13C6 12.4477 6.44772 12 7 12H41C41.5523 12 42 12.4477 42 13V39C42 39.5523 41.5523 40 41 40H7C6.44772 40 6 39.5523 6 39V13Z" stroke="rgba(255,255,255,0.8)" stroke-width="4" fill="none"></path><path d="M31 26C31 29.866 27.866 33 24 33C20.134 33 17 29.866 17 26C17 22.134 20.134 19 24 19C27.866 19 31 22.134 31 26Z" stroke="rgba(255,255,255,0.8)" stroke-width="4" fill="none"></path><path d="M33 12L31.1382 8.27639C31.0535 8.107 30.8804 8 30.691 8H17.309C17.1196 8 16.9465 8.107 16.8618 8.27639L15 12" stroke="rgba(255,255,255,0.8)" stroke-width="4" fill="none"></path>
    </g>
  </svg>