<svg xmlns="http://www.w3.org/2000/svg" xmlns:xlink="http://www.w3.org/1999/xlink" viewBox="0 0 32 32" width="24" height="24" style="border-color: rgba(187,187,187,1);border-width: 0;border-style: solid" filter="none">
    
    <g>
    <path d="M16 26.163l-8.008 3.529c-0.449 0.198-0.974-0.006-1.172-0.455-0.048-0.105-0.075-0.229-0.075-0.358 0-0.032 0.002-0.063 0.005-0.093l-0 0.004 0.881-8.707-5.831-6.526c-0.327-0.366-0.296-0.928 0.071-1.255 0.11-0.099 0.247-0.171 0.398-0.205l0.006-0.001 8.553-1.852 4.404-7.562c0.247-0.424 0.791-0.568 1.215-0.321 0.134 0.079 0.242 0.187 0.318 0.317l0.002 0.004 4.404 7.562 8.553 1.852c0.48 0.104 0.785 0.577 0.681 1.057-0.035 0.157-0.107 0.294-0.207 0.405l0.001-0.001-5.831 6.526 0.881 8.707c0.049 0.488-0.306 0.924-0.795 0.974-0.153 0.015-0.307-0.009-0.448-0.071l-8.008-3.529z" fill="rgba(51,51,51,0.6)"></path>
    </g>
  </svg>